<?xml version="1.0" standalone="no"?><!DOCTYPE svg PUBLIC "-//W3C//DTD SVG 1.1//EN" "http://www.w3.org/Graphics/SVG/1.1/DTD/svg11.dtd"><svg t="1740924235534" class="icon" viewBox="0 0 1024 1024" version="1.1" xmlns="http://www.w3.org/2000/svg" p-id="4314" xmlns:xlink="http://www.w3.org/1999/xlink" width="200" height="200"><path d="M419.84 682.666667c6.826667 3.413333 13.653333 0 17.066667-3.413334l157.013333-157.013333 157.013333 157.013333c3.413333 3.413333 6.826667 3.413333 13.653334 3.413334h6.826666c6.826667-3.413333 10.24-10.24 10.24-17.066667V102.4c0-37.546667 30.72-68.266667 68.266667-68.266667 10.24 0 17.066667-6.826667 17.066667-17.066666S863.573333 0 853.333333 0H512c-58.026667 0-102.4 44.373333-102.4 102.4v563.2c0 6.826667 3.413333 13.653333 10.24 17.066667z" fill="#1195db" p-id="4315"></path><path d="M921.6 102.4h-102.4v204.8h170.666667v614.4c0 37.546667-30.72 68.266667-68.266667 68.266667H102.4c-37.546667 0-68.266667-30.72-68.266667-68.266667V307.2h341.333334V102.4H102.4C44.373333 102.4 0 146.773333 0 204.8v716.8c0 58.026667 44.373333 102.4 102.4 102.4h819.2c58.026667 0 102.4-44.373333 102.4-102.4V204.8c0-58.026667-44.373333-102.4-102.4-102.4zM307.2 170.666667c20.48 0 34.133333 13.653333 34.133333 34.133333s-13.653333 34.133333-34.133333 34.133333-34.133333-13.653333-34.133333-34.133333 13.653333-34.133333 34.133333-34.133333zM204.8 170.666667c20.48 0 34.133333 13.653333 34.133333 34.133333s-13.653333 34.133333-34.133333 34.133333-34.133333-13.653333-34.133333-34.133333 13.653333-34.133333 34.133333-34.133333zM102.4 170.666667c20.48 0 34.133333 13.653333 34.133333 34.133333s-13.653333 34.133333-34.133333 34.133333-34.133333-13.653333-34.133333-34.133333 13.653333-34.133333 34.133333-34.133333z" fill="#1195db" p-id="4316"></path></svg>